<svg xmlns="http://www.w3.org/2000/svg" width="133.911" height="47.607"><path id="パス_1" data-name="パス 1" d="M-.269,55.365l4.1-3.2a26.693,26.693,0,0,0,3.174.415,6.742,6.742,0,0,0,3.955-3.723,21.33,21.33,0,0,0,1.147-8.044l.1-3.784q0-7.3,4.98-11.426a13.594,13.594,0,0,1,8.765-3.418,10.114,10.114,0,0,1,4.053.9l-3.613,3.54A8.048,8.048,0,0,0,22,25.189q-5.444,0-5.444,8.911l-.1,3.369q0,6.909-1.318,10.12a10.956,10.956,0,0,1-5.054,5.31l5.054.415,2.246.171,2.71.171q1.074.073,2.417.073,6.055,0,9.448-3.516a1.465,1.465,0,0,1,.391.708q0,.806-2.344,2.759a13.282,13.282,0,0,1-8.594,3.3q-1.88,0-4.614-.2l-7.251-.537Q3.882,55.829-.269,55.365ZM46.558,57a9.6,9.6,0,0,1-7.825-3.772,14.98,14.98,0,0,1-3.04-9.7,21.456,21.456,0,0,1,5.823-14.978,18.046,18.046,0,0,1,13.733-6.36,9.8,9.8,0,0,1,7.959,3.723,14.857,14.857,0,0,1,3.052,9.729,21.411,21.411,0,0,1-5.847,15.027A18.249,18.249,0,0,1,46.558,57Zm3.2-1.978q5.054,0,8.459-4.858A20.5,20.5,0,0,0,61.621,38.1a17.573,17.573,0,0,0-2.661-10Q56.3,24.14,52.271,24.14q-5.1,0-8.521,4.846a20.473,20.473,0,0,0-3.418,12.1,17.5,17.5,0,0,0,2.661,10Q45.654,55.023,49.756,55.023ZM91.8,53.168A19.028,19.028,0,0,1,80.933,57a10.045,10.045,0,0,1-8.142-3.735Q69.7,49.53,69.7,43.4a21.249,21.249,0,0,1,5.713-15.137,18.758,18.758,0,0,1,14.258-6.079,26.888,26.888,0,0,1,8.96,1.636L97,27.411l-.464,1.05q-.586,1.245-1.44,1.245a2.7,2.7,0,0,1-.513-.073,3.2,3.2,0,0,0,.342-1.245q0-1.636-2.185-2.856a10.265,10.265,0,0,0-5.09-1.221,11.667,11.667,0,0,0-9.741,4.773q-3.662,4.773-3.662,12.659,0,5.786,2.563,9.033a8.573,8.573,0,0,0,7.129,3.247,12.5,12.5,0,0,0,8.13-3.32l1-8.813h-4.15a22.387,22.387,0,0,0-6.763.83,7.413,7.413,0,0,1,2.307-3.125,8.984,8.984,0,0,1,4.089-.635l2.466-.024H97.51l-.244,1-.391,1.538a23.026,23.026,0,0,0-.439,2.368l-1.074,9.814a35.3,35.3,0,0,1-1.44,7.41A13.65,13.65,0,0,1,81.47,69.794a9.711,9.711,0,0,1-7.983-3.516L77.124,63.4a7.331,7.331,0,0,0,6.909,4.321q3.516,0,5.066-2.209t2.234-8.118ZM113.94,57a9.6,9.6,0,0,1-7.825-3.772,14.98,14.98,0,0,1-3.04-9.7A21.456,21.456,0,0,1,108.9,28.546a18.046,18.046,0,0,1,13.733-6.36,9.8,9.8,0,0,1,7.959,3.723,14.857,14.857,0,0,1,3.052,9.729A21.411,21.411,0,0,1,127.8,50.666,18.249,18.249,0,0,1,113.94,57Zm3.2-1.978q5.054,0,8.459-4.858A20.5,20.5,0,0,0,129,38.1a17.573,17.573,0,0,0-2.661-10q-2.661-3.967-6.689-3.967-5.1,0-8.521,4.846a20.473,20.473,0,0,0-3.418,12.1,17.5,17.5,0,0,0,2.661,10Q113.037,55.023,117.139,55.023Z" transform="translate(0.269 -22.187)" fill="#707070"/></svg>